<svg width="477" height="474" viewBox="0 0 477 474" fill="none" xmlns="http://www.w3.org/2000/svg">
<g clip-path="url(#clip0_2_2932)">
<g filter="url(#filter0_d_2_2932)">
<g filter="url(#filter1_i_2_2932)">
<path fill-rule="evenodd" clip-rule="evenodd" d="M277.913 465.704C214.156 465.704 162.471 416.666 162.471 356.176C162.471 295.685 214.156 246.647 277.913 246.647C341.67 246.647 393.355 295.685 393.355 356.176C393.355 416.666 341.67 465.704 277.913 465.704Z" fill="#2F27CE"/>
</g>
<g filter="url(#filter2_d_2_2932)">
<path fill-rule="evenodd" clip-rule="evenodd" d="M229.301 330.616C238.737 350.629 253.482 399.209 253.482 399.209L240.964 404.928C240.964 404.928 209.202 353.861 189.791 318.953C190.695 326.811 191.616 335.659 192.47 344.96C194.493 366.993 192.471 414.595 191.383 428.345C190.699 436.987 178.957 435.177 177.861 428.323C177.675 427.162 176.918 423.086 175.789 417.005C170.253 387.188 155.765 309.15 155.739 290.042C155.729 282.353 170.75 275.446 179.703 280.822C185.853 274.26 197.492 270.478 204.178 281.318C208.429 288.209 218.529 307.772 229.301 330.616Z" fill="#FFB6B6"/>
<path fill-rule="evenodd" clip-rule="evenodd" d="M252.587 381.223L209.622 279.443C199.33 262.886 170.472 282.812 173.982 292.415C181.95 314.217 222.479 384.798 224.853 391.294L252.587 381.223Z" fill="#A29DEE"/>
<path fill-rule="evenodd" clip-rule="evenodd" d="M251.868 393.093C252.556 392.146 253.897 391.921 254.796 392.672C256.575 394.161 259.248 396.547 260.196 398.189C261.666 400.735 263.638 406.11 263.638 406.11C260.684 407.815 210.545 436.763 210.545 436.763C210.545 436.763 204.526 431.116 208.67 427.996C212.814 424.877 215.509 422.734 215.509 422.734L233.887 397.413C234.218 396.957 234.86 396.865 235.306 397.208L239.185 400.195C239.185 400.195 244.425 399.738 247.005 398.248C248.623 397.314 250.61 394.822 251.868 393.093Z" fill="#433BFF"/>
<path fill-rule="evenodd" clip-rule="evenodd" d="M191.292 421.537C192.362 421.061 193.636 421.537 194.038 422.637C194.835 424.816 195.957 428.219 195.957 430.115C195.957 433.055 194.977 438.696 194.977 438.696C191.566 438.696 133.671 438.696 133.671 438.696C133.671 438.696 131.281 430.795 136.43 430.166C141.578 429.536 144.984 429.028 144.984 429.028L173.56 416.289C174.075 416.059 174.677 416.3 174.892 416.821L176.757 421.346C176.757 421.346 181.524 423.57 184.504 423.57C186.372 423.57 189.338 422.406 191.292 421.537Z" fill="#433BFF"/>
<path fill-rule="evenodd" clip-rule="evenodd" d="M152.728 297.862C152.728 326.739 166.442 394.098 166.45 400.457L195.956 400.479C195.956 400.479 189.478 310.324 191.362 309.353C193.246 308.381 268.591 316.875 291.189 316.875C323.774 316.875 337.254 296.327 338.348 258.261H273.797C260.654 259.667 192.099 273.495 166.639 278.248C155.739 280.283 152.728 289.907 152.728 297.862Z" fill="#DEDCFF"/>
</g>
<g filter="url(#filter3_d_2_2932)">
<path fill-rule="evenodd" clip-rule="evenodd" d="M290.114 134.961C283.075 139.204 276.159 141.254 272.913 140.417C264.772 138.319 264.024 108.538 270.322 96.7978C276.621 85.0575 309.002 79.9403 310.634 103.202C311.2 111.275 307.81 118.48 302.802 124.359L311.783 166.217H285.696L290.114 134.961Z" fill="#FFB6B6"/>
<path fill-rule="evenodd" clip-rule="evenodd" d="M281.86 98.1995C285.751 100.122 288.467 103.855 291.754 108.789C292.535 108.502 293.386 108.344 294.277 108.344C298.088 108.344 301.178 111.234 301.178 114.799C301.178 116.609 300.381 118.245 299.099 119.417C300.695 121.525 301.036 122.097 303.087 124.37C310.79 120.047 317.955 109.021 310.424 96.8625C308.342 90.9064 303.63 87.725 298.064 86.2478C293.555 84.4836 288.875 84.2847 284.924 85.3423C277.18 85.9637 270.264 88.1729 268.304 89.4848C268.304 96.3438 269.725 98.3788 281.86 98.1995Z" fill="#FDF023"/>
<path fill-rule="evenodd" clip-rule="evenodd" d="M289.941 106.435C289.941 106.435 290.492 127.035 284.065 127.035C277.638 127.035 269.005 122.556 266.185 122.556C265 123 265 124 266.185 126C268 127 272.55 129 272.55 132.565C272.55 135.005 268.225 133.118 268.225 134.564C268.225 136.958 267.464 141.458 271.618 141.458C275.822 141.458 287.875 139.926 289.941 133.686C292.006 127.447 292.564 107.387 292.564 107.387L289.941 106.435Z" fill="#694B55"/>
<path fill-rule="evenodd" clip-rule="evenodd" d="M193.653 267.995L228.325 242.534L235.989 261.481L201.655 275.719C191.945 287.125 186.515 291.88 185.365 289.984C184.396 288.385 185.154 286.888 185.852 285.509C186.395 284.435 186.902 283.433 186.529 282.51C185.676 280.402 179.153 280.624 172.972 281.099C166.791 281.574 168.593 278.824 170.083 277.466C176.392 273.689 184.249 270.532 193.653 267.995ZM375.48 312.857C372.295 306.395 361.448 243.413 361.448 243.413L338.733 243.502C338.733 243.502 359.771 311.416 361.448 315.572C363.626 320.97 359.926 328.813 357.417 334.131C357.029 334.953 356.67 335.716 356.365 336.399C359.846 337.957 361.518 336.074 363.281 334.089C365.272 331.847 367.379 329.475 372.339 331.782C374.255 332.674 376.069 333.728 377.84 334.758C383.96 338.315 389.582 341.582 397.229 336.864C398.442 336.116 399.77 333.299 396.56 331.098C388.563 325.614 377.038 316.016 375.48 312.857Z" fill="#FFB6B6"/>
<path fill-rule="evenodd" clip-rule="evenodd" d="M296.897 148.1L287.498 146.488C252.624 176.613 238.301 234.488 195.555 265.146L205.843 277.9C280 268.718 298.38 198.125 296.897 148.1Z" fill="#433BFF"/>
<path fill-rule="evenodd" clip-rule="evenodd" d="M337.87 266.217C337.87 266.217 281.339 266.217 254.705 266.217C250.905 266.217 251.621 260.73 252.17 257.961C258.51 226.004 283.259 191.556 283.259 146.066L307.248 142.304C327.09 174.216 333.951 213.505 337.87 266.217Z" fill="#DEDCFF"/>
<path fill-rule="evenodd" clip-rule="evenodd" d="M347.221 289.043C350.958 298.02 354.624 305.853 358.077 311.87H375.913C377.832 249.825 354.342 202.083 334.683 173.297C339.048 172.985 342.988 171.158 345.478 166.664C354.246 150.844 351.08 142.133 341.71 139.27C336.557 137.695 331.711 138.77 325.91 140.056C321.164 141.109 315.778 142.304 309.061 142.304C309.059 142.304 309.056 142.304 309.054 142.304C308.403 142.304 307.811 142.348 307.273 142.431L299.313 142.886C299.313 142.886 266.994 252.419 281.487 289.043H347.221Z" fill="#433BFF"/>
<path fill-rule="evenodd" clip-rule="evenodd" d="M347.221 289.044C342.317 277.265 337.288 263.518 332.449 249.32C330.647 264.955 327.647 280.659 322.652 289.044H347.221Z" fill="black" fill-opacity="0.1"/>
</g>
<g filter="url(#filter4_di_2_2932)">
<path fill-rule="evenodd" clip-rule="evenodd" d="M432.435 473.828C417.427 473.828 405.261 461.661 405.261 446.653C405.261 431.645 417.427 419.478 432.435 419.478C447.442 419.478 459.609 431.645 459.609 446.653C459.609 461.661 447.442 473.828 432.435 473.828Z" fill="#DEDCFF"/>
</g>
<g filter="url(#filter5_d_2_2932)">
<path fill-rule="evenodd" clip-rule="evenodd" d="M36.239 353.174C23.3323 353.174 12.8694 343.198 12.8694 330.891C12.8694 318.585 23.3323 308.609 36.239 308.609C49.1456 308.609 59.6085 318.585 59.6085 330.891C59.6085 343.198 49.1456 353.174 36.239 353.174Z" fill="#DEDCFF"/>
</g>
<g filter="url(#filter6_di_2_2932)">
<path fill-rule="evenodd" clip-rule="evenodd" d="M35.6957 356.433C17.0861 356.433 2.00006 341.348 2.00006 322.738C2.00006 304.129 17.0861 289.043 35.6957 289.043C54.3053 289.043 69.3914 304.129 69.3914 322.738C69.3914 341.348 54.3053 356.433 35.6957 356.433Z" fill="#DEDCFF"/>
</g>
<g filter="url(#filter7_i_2_2932)">
<path fill-rule="evenodd" clip-rule="evenodd" d="M459.848 137.7C450.543 137.7 443 130.156 443 120.85C443 111.544 450.543 104 459.848 104C469.153 104 476.696 111.544 476.696 120.85C476.696 130.156 469.153 137.7 459.848 137.7Z" fill="#433BFF"/>
</g>
<g filter="url(#filter8_i_2_2932)">
<path fill-rule="evenodd" clip-rule="evenodd" d="M113.957 109.7C83.9411 109.7 59.6088 85.3667 59.6088 55.35C59.6088 25.3333 83.9411 1 113.957 1C143.972 1 168.304 25.3333 168.304 55.35C168.304 85.3667 143.972 109.7 113.957 109.7Z" fill="#2F27CE"/>
</g>
</g>
</g>
<defs>
<filter id="filter0_d_2_2932" x="-56" y="-55" width="594.696" height="637.044" filterUnits="userSpaceOnUse" color-interpolation-filters="sRGB">
<feFlood flood-opacity="0" result="BackgroundImageFix"/>
<feColorMatrix in="SourceAlpha" type="matrix" values="0 0 0 0 0 0 0 0 0 0 0 0 0 0 0 0 0 0 127 0" result="hardAlpha"/>
<feOffset dx="2" dy="4"/>
<feGaussianBlur stdDeviation="30"/>
<feComposite in2="hardAlpha" operator="out"/>
<feColorMatrix type="matrix" values="0 0 0 0 0.870588 0 0 0 0 0.862745 0 0 0 0 1 0 0 0 0.15 0"/>
<feBlend mode="normal" in2="BackgroundImageFix" result="effect1_dropShadow_2_2932"/>
<feBlend mode="normal" in="SourceGraphic" in2="effect1_dropShadow_2_2932" result="shape"/>
</filter>
<filter id="filter1_i_2_2932" x="104" y="246.647" width="347.826" height="220.057" filterUnits="userSpaceOnUse" color-interpolation-filters="sRGB">
<feFlood flood-opacity="0" result="BackgroundImageFix"/>
<feBlend mode="normal" in="SourceGraphic" in2="BackgroundImageFix" result="shape"/>
<feColorMatrix in="SourceAlpha" type="matrix" values="0 0 0 0 0 0 0 0 0 0 0 0 0 0 0 0 0 0 127 0" result="hardAlpha"/>
<feOffset dy="1"/>
<feGaussianBlur stdDeviation="40"/>
<feComposite in2="hardAlpha" operator="arithmetic" k2="-1" k3="1"/>
<feColorMatrix type="matrix" values="0 0 0 0 0.870588 0 0 0 0 0.862745 0 0 0 0 1 0 0 0 0.1 0"/>
<feBlend mode="normal" in2="shape" result="effect1_innerShadow_2_2932"/>
</filter>
<filter id="filter2_d_2_2932" x="110.739" y="36" width="369.348" height="503.044" filterUnits="userSpaceOnUse" color-interpolation-filters="sRGB">
<feFlood flood-opacity="0" result="BackgroundImageFix"/>
<feColorMatrix in="SourceAlpha" type="matrix" values="0 0 0 0 0 0 0 0 0 0 0 0 0 0 0 0 0 0 127 0" result="hardAlpha"/>
<feOffset dy="1"/>
<feGaussianBlur stdDeviation="10"/>
<feComposite in2="hardAlpha" operator="out"/>
<feColorMatrix type="matrix" values="0 0 0 0 0 0 0 0 0 0 0 0 0 0 0 0 0 0 0.1 0"/>
<feBlend mode="normal" in2="BackgroundImageFix" result="effect1_dropShadow_2_2932"/>
<feBlend mode="normal" in="SourceGraphic" in2="effect1_dropShadow_2_2932" result="shape"/>
</filter>
<filter id="filter3_d_2_2932" x="113.522" y="34.1741" width="366.087" height="423.696" filterUnits="userSpaceOnUse" color-interpolation-filters="sRGB">
<feFlood flood-opacity="0" result="BackgroundImageFix"/>
<feColorMatrix in="SourceAlpha" type="matrix" values="0 0 0 0 0 0 0 0 0 0 0 0 0 0 0 0 0 0 127 0" result="hardAlpha"/>
<feOffset dy="1"/>
<feGaussianBlur stdDeviation="10"/>
<feComposite in2="hardAlpha" operator="out"/>
<feColorMatrix type="matrix" values="0 0 0 0 0 0 0 0 0 0 0 0 0 0 0 0 0 0 0.1 0"/>
<feBlend mode="normal" in2="BackgroundImageFix" result="effect1_dropShadow_2_2932"/>
<feBlend mode="normal" in="SourceGraphic" in2="effect1_dropShadow_2_2932" result="shape"/>
</filter>
<filter id="filter4_di_2_2932" x="392.261" y="405.478" width="84.3478" height="84.3501" filterUnits="userSpaceOnUse" color-interpolation-filters="sRGB">
<feFlood flood-opacity="0" result="BackgroundImageFix"/>
<feColorMatrix in="SourceAlpha" type="matrix" values="0 0 0 0 0 0 0 0 0 0 0 0 0 0 0 0 0 0 127 0" result="hardAlpha"/>
<feOffset dx="2" dy="1"/>
<feGaussianBlur stdDeviation="7.5"/>
<feComposite in2="hardAlpha" operator="out"/>
<feColorMatrix type="matrix" values="0 0 0 0 0.0196078 0 0 0 0 0.0117647 0 0 0 0 0.0823529 0 0 0 0.05 0"/>
<feBlend mode="normal" in2="BackgroundImageFix" result="effect1_dropShadow_2_2932"/>
<feBlend mode="normal" in="SourceGraphic" in2="effect1_dropShadow_2_2932" result="shape"/>
<feColorMatrix in="SourceAlpha" type="matrix" values="0 0 0 0 0 0 0 0 0 0 0 0 0 0 0 0 0 0 127 0" result="hardAlpha"/>
<feOffset dy="1"/>
<feGaussianBlur stdDeviation="5"/>
<feComposite in2="hardAlpha" operator="arithmetic" k2="-1" k3="1"/>
<feColorMatrix type="matrix" values="0 0 0 0 0.184314 0 0 0 0 0.152941 0 0 0 0 0.807843 0 0 0 0.1 0"/>
<feBlend mode="normal" in2="shape" result="effect2_innerShadow_2_2932"/>
</filter>
<filter id="filter5_d_2_2932" x="-5.13062" y="290.609" width="86.7391" height="84.5652" filterUnits="userSpaceOnUse" color-interpolation-filters="sRGB">
<feFlood flood-opacity="0" result="BackgroundImageFix"/>
<feColorMatrix in="SourceAlpha" type="matrix" values="0 0 0 0 0 0 0 0 0 0 0 0 0 0 0 0 0 0 127 0" result="hardAlpha"/>
<feOffset dx="2" dy="2"/>
<feGaussianBlur stdDeviation="10"/>
<feComposite in2="hardAlpha" operator="out"/>
<feColorMatrix type="matrix" values="0 0 0 0 0 0 0 0 0 0 0 0 0 0 0 0 0 0 0.1 0"/>
<feBlend mode="normal" in2="BackgroundImageFix" result="effect1_dropShadow_2_2932"/>
<feBlend mode="normal" in="SourceGraphic" in2="effect1_dropShadow_2_2932" result="shape"/>
</filter>
<filter id="filter6_di_2_2932" x="-11" y="275.043" width="97.3914" height="97.3899" filterUnits="userSpaceOnUse" color-interpolation-filters="sRGB">
<feFlood flood-opacity="0" result="BackgroundImageFix"/>
<feColorMatrix in="SourceAlpha" type="matrix" values="0 0 0 0 0 0 0 0 0 0 0 0 0 0 0 0 0 0 127 0" result="hardAlpha"/>
<feOffset dx="2" dy="1"/>
<feGaussianBlur stdDeviation="7.5"/>
<feComposite in2="hardAlpha" operator="out"/>
<feColorMatrix type="matrix" values="0 0 0 0 0.0196078 0 0 0 0 0.0117647 0 0 0 0 0.0823529 0 0 0 0.05 0"/>
<feBlend mode="normal" in2="BackgroundImageFix" result="effect1_dropShadow_2_2932"/>
<feBlend mode="normal" in="SourceGraphic" in2="effect1_dropShadow_2_2932" result="shape"/>
<feColorMatrix in="SourceAlpha" type="matrix" values="0 0 0 0 0 0 0 0 0 0 0 0 0 0 0 0 0 0 127 0" result="hardAlpha"/>
<feOffset dy="1"/>
<feGaussianBlur stdDeviation="5"/>
<feComposite in2="hardAlpha" operator="arithmetic" k2="-1" k3="1"/>
<feColorMatrix type="matrix" values="0 0 0 0 0.184314 0 0 0 0 0.152941 0 0 0 0 0.807843 0 0 0 0.1 0"/>
<feBlend mode="normal" in2="shape" result="effect2_innerShadow_2_2932"/>
</filter>
<filter id="filter7_i_2_2932" x="443" y="104" width="34.6957" height="34.7" filterUnits="userSpaceOnUse" color-interpolation-filters="sRGB">
<feFlood flood-opacity="0" result="BackgroundImageFix"/>
<feBlend mode="normal" in="SourceGraphic" in2="BackgroundImageFix" result="shape"/>
<feColorMatrix in="SourceAlpha" type="matrix" values="0 0 0 0 0 0 0 0 0 0 0 0 0 0 0 0 0 0 127 0" result="hardAlpha"/>
<feOffset dx="1" dy="1"/>
<feGaussianBlur stdDeviation="7.5"/>
<feComposite in2="hardAlpha" operator="arithmetic" k2="-1" k3="1"/>
<feColorMatrix type="matrix" values="0 0 0 0 0.0196078 0 0 0 0 0.0117647 0 0 0 0 0.0823529 0 0 0 0.1 0"/>
<feBlend mode="normal" in2="shape" result="effect1_innerShadow_2_2932"/>
</filter>
<filter id="filter8_i_2_2932" x="59.6088" y="1" width="110.696" height="109.7" filterUnits="userSpaceOnUse" color-interpolation-filters="sRGB">
<feFlood flood-opacity="0" result="BackgroundImageFix"/>
<feBlend mode="normal" in="SourceGraphic" in2="BackgroundImageFix" result="shape"/>
<feColorMatrix in="SourceAlpha" type="matrix" values="0 0 0 0 0 0 0 0 0 0 0 0 0 0 0 0 0 0 127 0" result="hardAlpha"/>
<feOffset dx="2" dy="1"/>
<feGaussianBlur stdDeviation="7.5"/>
<feComposite in2="hardAlpha" operator="arithmetic" k2="-1" k3="1"/>
<feColorMatrix type="matrix" values="0 0 0 0 0 0 0 0 0 0 0 0 0 0 0 0 0 0 0.05 0"/>
<feBlend mode="normal" in2="shape" result="effect1_innerShadow_2_2932"/>
</filter>
<clipPath id="clip0_2_2932">
<rect width="477" height="474" fill="white"/>
</clipPath>
</defs>
</svg>
